<svg width="1031" height="1021" viewBox="0 0 1031 1021" fill="none" xmlns="http://www.w3.org/2000/svg">
<g opacity="0.4">
<path d="M689.739 205.221C715.514 259.334 694.894 349.182 666.026 407.379C638.189 464.555 601.073 491.101 633.034 552.361C663.964 613.621 761.909 710.616 768.095 758.603C774.281 806.59 689.739 807.611 624.786 782.086C559.833 755.54 516.531 704.49 489.725 665.692C462.919 626.894 451.578 600.348 436.113 579.928C420.648 559.508 400.028 545.214 347.447 504.374C293.835 464.555 209.293 399.211 212.386 365.518C215.479 331.825 306.207 330.804 372.191 294.048C437.144 257.292 476.322 184.801 533.027 158.255C588.701 131.709 662.933 151.108 689.739 205.221Z" fill="url(#paint0_linear_55_23)"/>
</g>
<defs>
<linearGradient id="paint0_linear_55_23" x1="212.303" y1="798.69" x2="856.327" y2="249.57" gradientUnits="userSpaceOnUse">
<stop stop-color="#00FF19"/>
<stop offset="1" stop-opacity="0"/>
</linearGradient>
</defs>
</svg>
