<svg width="23" height="22" viewBox="0 0 23 22" fill="none" xmlns="http://www.w3.org/2000/svg">
<path d="M12.65 5.36959C12.65 8.2694 10.5908 10.6196 8.05 10.6196C5.50922 10.6196 3.45 8.2694 3.45 5.36959C3.45 2.46979 5.50922 0.119591 8.05 0.119591C10.5908 0.119591 12.65 2.46979 12.65 5.36959ZM0 19.9014C0 15.8614 2.86781 12.5883 6.40766 12.5883H9.69234C13.2322 12.5883 16.1 15.8614 16.1 19.9014C16.1 20.5741 15.622 21.1196 15.0327 21.1196H1.06734C0.477969 21.1196 0 20.5741 0 19.9014ZM16.9625 8.32272H22.1375C22.6155 8.32272 23 8.76158 23 9.30709C23 9.8526 22.6155 10.2915 22.1375 10.2915H16.9625C16.4845 10.2915 16.1 9.8526 16.1 9.30709C16.1 8.76158 16.4845 8.32272 16.9625 8.32272Z" fill="black"/>
</svg>
