<svg width="23" height="22" viewBox="0 0 23 22" fill="none" xmlns="http://www.w3.org/2000/svg">
<path d="M8.05 10.6841C10.5908 10.6841 12.65 8.3339 12.65 5.4341C12.65 2.53429 10.5908 0.184097 8.05 0.184097C5.50922 0.184097 3.45 2.53429 3.45 5.4341C3.45 8.3339 5.50922 10.6841 8.05 10.6841ZM6.40766 12.6528C2.86781 12.6528 0 15.9259 0 19.9659C0 20.6386 0.477969 21.1841 1.06734 21.1841H11.6006C11.4892 20.8232 11.4677 20.4294 11.5503 20.0439L12.0894 17.5788C12.19 17.1153 12.3984 16.697 12.6931 16.3607L14.1414 14.7077C12.9878 13.4362 11.4209 12.6528 9.68875 12.6528H6.40766V12.6528ZM22.0584 9.85148C21.4978 9.21164 20.5886 9.21164 20.0244 9.85148L18.9678 11.0573L21.5194 13.9694L22.5759 12.7636C23.1366 12.1237 23.1366 11.0861 22.5759 10.4421L22.0584 9.85148ZM13.5089 17.2876C13.3616 17.4558 13.2573 17.665 13.207 17.8987L12.668 20.3638C12.6177 20.5894 12.6752 20.8232 12.8189 20.9872C12.9627 21.1513 13.1675 21.2169 13.3652 21.1595L15.525 20.5443C15.7262 20.4868 15.9131 20.3679 16.0605 20.1997L20.7036 14.8964L18.152 11.9843L13.5089 17.2876Z" fill="black"/>
</svg>
