<svg width="28" height="27" viewBox="0 0 28 27" fill="none" xmlns="http://www.w3.org/2000/svg">
<path d="M5.62192 11.9562L13.3875 4.19059C13.5956 3.98262 13.8777 3.86578 14.1719 3.86578C14.466 3.86578 14.7482 3.98262 14.9562 4.19059L22.7218 11.9562C22.9299 12.1642 23.0468 12.4463 23.0469 12.7405V23.375C23.0469 23.6692 22.93 23.9514 22.7219 24.1595C22.5139 24.3675 22.2317 24.4844 21.9375 24.4844H16.3906V16.7188H11.9531V24.4844H6.40625C6.11203 24.4844 5.82985 24.3675 5.6218 24.1595C5.41376 23.9514 5.29688 23.6692 5.29688 23.375V12.7405C5.29694 12.4463 5.41386 12.1642 5.62192 11.9562V11.9562Z" fill="black"/>
</svg>
