<svg width="23" height="22" viewBox="0 0 23 22" fill="none" xmlns="http://www.w3.org/2000/svg">
<path d="M12.65 5.3586C12.65 8.2584 10.5908 10.6086 8.05 10.6086C5.50922 10.6086 3.45 8.2584 3.45 5.3586C3.45 2.45879 5.50922 0.108597 8.05 0.108597C10.5908 0.108597 12.65 2.45879 12.65 5.3586ZM0 19.8904C0 15.8504 2.86781 12.5773 6.40766 12.5773H9.69234C13.2322 12.5773 16.1 15.8504 16.1 19.8904C16.1 20.5631 15.622 21.1086 15.0327 21.1086H1.06734C0.477969 21.1086 0 20.5631 0 19.8904ZM18.1125 12.9055V10.2805H15.8125C15.3345 10.2805 14.95 9.8416 14.95 9.2961C14.95 8.75059 15.3345 8.31172 15.8125 8.31172H18.1125V5.68672C18.1125 5.14121 18.497 4.70235 18.975 4.70235C19.453 4.70235 19.8375 5.14121 19.8375 5.68672V8.31172H22.1375C22.6155 8.31172 23 8.75059 23 9.2961C23 9.8416 22.6155 10.2805 22.1375 10.2805H19.8375V12.9055C19.8375 13.451 19.453 13.8898 18.975 13.8898C18.497 13.8898 18.1125 13.451 18.1125 12.9055Z" fill="black"/>
</svg>
