<svg width="16" height="16" viewBox="0 0 16 16" fill="none" xmlns="http://www.w3.org/2000/svg">
<path d="M12.2165 11.6491L14.1271 13.5587C14.2162 13.651 14.2655 13.7745 14.2644 13.9028C14.2633 14.031 14.2118 14.1537 14.1212 14.2444C14.0305 14.3351 13.9078 14.3866 13.7795 14.3877C13.6513 14.3888 13.5277 14.3395 13.4355 14.2504L11.5248 12.3398C10.2763 13.4095 8.66196 13.954 7.02057 13.8591C5.37919 13.7643 3.83835 13.0373 2.72138 11.8309C1.60441 10.6244 0.998132 9.03224 1.02977 7.38842C1.06142 5.74459 1.72851 4.17692 2.89109 3.01435C4.05366 1.85178 5.62133 1.18468 7.26516 1.15303C8.90898 1.12139 10.5012 1.72767 11.7076 2.84464C12.9141 3.96161 13.641 5.50245 13.7359 7.14383C13.8308 8.78522 13.2862 10.3996 12.2165 11.6481V11.6491ZM7.38762 12.8915C8.81465 12.8915 10.1832 12.3246 11.1923 11.3156C12.2014 10.3065 12.7683 8.93791 12.7683 7.51088C12.7683 6.08384 12.2014 4.71525 11.1923 3.70619C10.1832 2.69712 8.81465 2.13023 7.38762 2.13023C5.96058 2.13023 4.59199 2.69712 3.58293 3.70619C2.57386 4.71525 2.00697 6.08384 2.00697 7.51088C2.00697 8.93791 2.57386 10.3065 3.58293 11.3156C4.59199 12.3246 5.96058 12.8915 7.38762 12.8915Z" fill="#A2A3A4"/>
</svg>
